# xmcd
#
# Track frame offsets:
#	150
#	17242
#	36931
#	59704
#	83451
#	106060
#	126128
#	147663
#	169126
#	191018
#	210324
#	231780
#	246073
#	264303
#	288449
#	310006
#	330334
#
# Disc length: 4647 seconds
#
# Revision: 1
# Processed by: cddbd v1.5.1PL0 Copyright (c) Steve Scherf et al.
# Submitted via: CDex 1.50Beta5
#
DISCID=ea122511
DTITLE=モーニング娘 - モーニング娘(秋葉)Single Best
DYEAR=1900
DGENRE=Pop
TTITLE0=サマーナイトタウン
TTITLE1=抱いて HOLD ON ME!
TTITLE2=Memory青春の風
TTITLE3=ふるさと
TTITLE4=LOVEマシーン
TTITLE5=恋のダンスサイト
TTITLE6=ハッピーサマーウェディング
TTITLE7=I WITH
TTITLE8=恋愛レボリューション21
TTITLE9=インスピレーション
TTITLE10=愛のバカやろう
TTITLE11=ジャンケンぴょん
TTITLE12=BABY!恋にKNOCK OUT
TTITLE13=青春時代1.2.3!
TTITLE14=恋をしちゃいました
TTITLE15=乙女パスタに感動
TTITLE16=悔し涙ポロリ
EXTD=
EXTT0=
EXTT1=
EXTT2=
EXTT3=
EXTT4=
EXTT5=
EXTT6=
EXTT7=
EXTT8=
EXTT9=
EXTT10=
EXTT11=
EXTT12=
EXTT13=
EXTT14=
EXTT15=
EXTT16=
PLAYORDER=
